<svg width="667" height="250" viewBox="0 0 667 250" xmlns="http://www.w3.org/2000/svg" xmlns:sketch="http://www.bohemiancoding.com/sketch/ns"><title>Group</title><desc>Created with Sketch.</desc><g sketch:type="MSLayerGroup" transform="translate(-386 -155) translate(386 155)" fill="none"><path d="M99.11 52.254s26.378 3.367 52.755 15.406c26.378 12.038 44.109 27.536 44.109 27.536" stroke="#727272" stroke-width="3" stroke-linecap="round" stroke-dasharray="9" sketch:type="MSShapeGroup"/><path d="M573.662 50.203s-26.378 3.367-52.755 15.406c-26.378 12.038-44.109 27.536-44.109 27.536" stroke="#727272" stroke-width="3" stroke-linecap="round" stroke-dasharray="9" sketch:type="MSShapeGroup"/><path d="M99.11 203.658s35.102-1.357 57.436-7.141c22.334-5.783 41.564-20.092 41.564-20.092" stroke="#727272" stroke-width="3" stroke-linecap="round" stroke-dasharray="9" sketch:type="MSShapeGroup"/><path d="M575.798 201.606s-35.102-1.357-57.436-7.141c-22.334-5.783-41.564-20.092-41.564-20.092" stroke="#727272" stroke-width="3" stroke-linecap="round" stroke-dasharray="9" sketch:type="MSShapeGroup"/><ellipse opacity=".52" fill="#D8D8D8" sketch:type="MSShapeGroup" cx="340.258" cy="238.5" rx="61.5" ry="11.5"/><g sketch:type="MSShapeGroup"><g transform="translate(234.758 38.458) translate(0 1)"><path d="M37.959 21.843h-11.868c-9.95 0-17.856 8.052-17.647 17.984l1.896 89.903c.21 9.943 8.231 17.984 17.918 17.984h155.892c9.681 0 17.708-8.052 17.918-17.984l1.896-89.903c.21-9.943-7.691-17.984-17.647-17.984h-95.222c-1.734-3.652-5.457-6.176-9.771-6.176h-33.591c-4.323 0-8.042 2.525-9.773 6.176z" stroke="#303338" stroke-width="4" fill="#ECE6E6"/><rect stroke="#3C80F4" stroke-width="3" fill="#F2F7FF" x="29.54" y="11.452" width="108.313" height="136.262" rx="5"/><path d="M59.099 12.011c-.192-3.739 2.629-6.929 6.282-7.124l88.981-4.761c3.661-.196 6.785 2.67 6.977 6.415l6.055 117.944c.192 3.739-2.629 6.929-6.282 7.124l-88.981 4.761c-3.661.196-6.785-2.67-6.977-6.415l-6.055-117.944z" stroke="#3C80F4" stroke-width="3" fill="#F2F7FF"/><rect stroke="#3C80F4" stroke-width="3" fill="#F2F7FF" x="69.717" y="10.048" width="108.313" height="136.262" rx="5"/><path d="M19.048 36.738h172.905c10.743 0 19.269 8.705 19.043 19.469l-.978 46.55c-.356 16.925-1.067 50.775-1.067 50.775-.226 10.752-8.888 19.469-19.336 19.469h-168.229c-10.453 0-19.109-8.705-19.336-19.469l-1.052-50.045-.994-47.279c-.226-10.752 8.305-19.469 19.043-19.469z" stroke="#303338" stroke-width="4" fill="#fff"/><path d="M52.851 81.013l-7.115-6.632c-.964-.904-.964-2.361 0-3.258.958-.899 2.522-.899 3.495 0l5.375 5.008 12.917-12.024c.964-.903 2.522-.903 3.497 0 .959.899.959 2.355 0 3.253l-14.663 13.659c-.473.429-1.099.672-1.76.672-.648 0-1.276-.246-1.746-.678z" fill="#7ED321"/><path d="M52.851 114.727l-7.115-6.632c-.964-.904-.964-2.361 0-3.258.958-.899 2.522-.899 3.495 0l5.375 5.008 12.917-12.024c.964-.903 2.522-.903 3.497 0 .959.899.959 2.355 0 3.253l-14.663 13.659c-.473.429-1.099.672-1.76.672-.648 0-1.276-.246-1.746-.678z" fill="#7ED321"/><path d="M52.851 148.441l-7.115-6.632c-.964-.904-.964-2.361 0-3.258.958-.899 2.522-.899 3.495 0l5.375 5.008 12.917-12.024c.964-.903 2.522-.903 3.497 0 .959.899.959 2.355 0 3.253l-14.663 13.659c-.473.429-1.099.672-1.76.672-.648 0-1.276-.246-1.746-.678z" fill="#7ED321"/></g><path stroke="#979797" d="M274.758 175.458h1-1z"/><path d="M318.758 111.458h73" stroke="#303338" stroke-width="4" stroke-linecap="round"/><path d="M318.758 145.458h73" stroke="#303338" stroke-width="4" stroke-linecap="round"/><path d="M318.758 178.458h73" stroke="#303338" stroke-width="4" stroke-linecap="round"/></g><g sketch:type="MSShapeGroup"><path d="M13.594 52.81s1.759-6.304 2.455-11.252c.696-4.948 1.391-12.482 1.391-12.482s-3.204-24.736 14.689-27.288c2.718-.388 7.074.714 9.16 1.684 4.17-.97 8.059.549 10.405 2.806 2.612 2.513 3.193 5.231 3.719 8.562 1.017 6.435-.151 13.367-.151 13.367s-.342 9.011-.342 12.864c0 3.853 1.523 9.622 3.408 12.823" id="Path-987" stroke="#5B5151" stroke-width="3" fill-opacity=".6" fill="#FFE200"/><path d="M3.992 63.91c2.679-7.066 6.946-8.406 10.357-9.015 3.412-.609 11.698-2.682 12.426-4.632.222-.586.303-1.678.318-2.906 2.088 1.566 4.88 3.048 8.239 3.194l.554.015c3.032 0 5.988-1.125 8.836-3.299.013 1.264.093 2.395.321 2.995.728 1.949 9.013 4.022 12.426 4.632 3.413.609 7.68 1.949 10.359 9.015 1.341 3.534-15.288 5.304-31.919 5.304-16.632 0-33.261-1.77-31.918-5.304z" id="Path" stroke="#5B5151" stroke-width="3" fill="#DFEFCD"/><path d="M21.858 25.82l1.056 3.649 1.165-3.824c1.183-.146 2.343-.35 3.47-.629 4.843-1.207 9.107-3.536 12.33-5.736 2.376-1.619 4.175-3.159 5.239-4.137.615 1.711 2.333 5.996 5.212 9.319 0 0 1.027 1.187 1.104 1.158.44.423.907.807 1.39 1.164.075.624.006 1.546-.313 2.912-1.068 4.6-3.059 4.549-3.318 4.882-.27.346-.321 4.307-4.291 8.958l-.004.112c-3.09 3.142-6.238 4.666-9.398 4.547-3.928-.164-7.032-2.843-8.574-4.467-4.054-4.776-4.294-9.154-4.294-9.154-.329.004-.986-.109-1.704-.946l-.834-1.32c-.314-.662-.614-1.506-.872-2.613-.578-2.489-.328-3.506.092-3.902.859.059 1.703.059 2.543.029z" id="Path" stroke="#5B5151" stroke-width="3" fill="#F2F4EC"/><circle fill-opacity=".22" fill="#FFB162" cx="29" cy="35" r="3"/><circle fill-opacity=".22" fill="#FFB162" cx="43" cy="35" r="3"/><circle id="Oval-78" fill="#5B5151" cx="30.5" cy="28.5" r="1.5"/><circle id="Oval-78-Copy" fill="#5B5151" cx="42.5" cy="28.5" r="1.5"/><path d="M31.437 40.229c.782 1.044 2.531 1.771 4.563 1.771 1.934 0 3.611-.659 4.443-1.623" id="Oval-78" stroke="#5B5151" stroke-width="2" stroke-linecap="round"/><path d="M49.168 22.862v5.664l1.842-4.181-1.842-1.484z" id="Path-988" fill="#5B5151"/></g><g transform="translate(596 171)" sketch:type="MSShapeGroup"><path d="M15.603 42.858c-1.11-.027-2.009-.94-2.009-2.039v-10.4s.642-26.08 18.535-28.632c2.718-.388 7.074.714 9.16 1.684 4.17-.97 8.059.549 10.405 2.806 2.612 2.513 5.783 14.11 6.568 21.929.784 7.819.256 12.701.256 12.701-.105 1.649-1.529 2.954-3.195 2.914l-39.72-.962z" stroke="#5B5151" stroke-width="3" fill-opacity=".9" fill="#5B5151"/><path d="M3.992 63.91c2.679-7.066 6.946-8.406 10.357-9.015 3.412-.609 11.698-2.682 12.426-4.632.222-.586.303-1.678.318-2.906 2.088 1.566 4.88 3.048 8.239 3.194l.554.015c3.032 0 5.988-1.125 8.836-3.299.013 1.264.093 2.395.321 2.995.728 1.949 9.013 4.022 12.426 4.632 3.413.609 7.68 1.949 10.359 9.015 1.341 3.534-15.288 5.304-31.919 5.304-16.632 0-33.261-1.77-31.918-5.304z" id="Path" stroke="#5B5151" stroke-width="3" fill-opacity=".17" fill="#ABABAB"/><path d="M21.858 25.82l1.056 3.649 1.165-3.824c1.183-.146 2.343-.35 3.47-.629 4.843-1.207 9.107-3.536 12.33-5.736 2.376-1.619 4.175-3.159 5.239-4.137.615 1.711 2.333 5.996 5.212 9.319 0 0 1.027 1.187 1.104 1.158.44.423.907.807 1.39 1.164.075.624.006 1.546-.313 2.912-1.068 4.6-3.059 4.549-3.318 4.882-.27.346-.321 4.307-4.291 8.958l-.004.112c-3.09 3.142-6.238 4.666-9.398 4.547-3.928-.164-7.032-2.843-8.574-4.467-4.054-4.776-4.294-9.154-4.294-9.154-.329.004-.986-.109-1.704-.946l-.834-1.32c-.314-.662-.614-1.506-.872-2.613-.578-2.489-.328-3.506.092-3.902.859.059 1.703.059 2.543.029z" id="Path" stroke="#5B5151" stroke-width="3" fill="#F2F4EC"/><circle id="Oval-78" fill="#5B5151" cx="30.5" cy="28.5" r="1.5"/><circle fill="#5B5151" cx="42.5" cy="28.5" r="1.5"/><path d="M31.437 39.229c.782 1.044 2.531 1.771 4.563 1.771 1.934 0 3.611-.659 4.443-1.623" stroke="#5B5151" stroke-width="2" stroke-linecap="round"/><path d="M49.168 22.862v5.664l1.842-4.181-1.842-1.484z" fill="#5B5151"/></g><g transform="translate(3 166)" sketch:type="MSShapeGroup"><circle id="Oval-80" stroke="#5B5151" stroke-width="3" fill="#A8A8A8" cx="33" cy="21" r="20"/><path d="M32.155 65.017c-14.789 0-25.095-2.836-28.098-3.775-1.057-8.689 9.617-15.736 15.999-19.14 1.599 1.638 7.717 7.18 15.918 5.526.276-.059.545-.127.815-.199.245-.063.495-.136.741-.213.471-.151.929-.317 1.367-.502.368-.158.738-.316 1.103-.5.251-.128.492-.261.734-.4.386-.213.767-.445 1.147-.695 1.54-1.015 2.783-2.155 3.777-3.202 1.081.542 2.186 1.174 3.059 1.857 6.25 3.782 13.939 10.001 13.05 17.442-9.745 2.523-19.705 3.801-29.613 3.801z" id="Path" stroke="#5B5151" stroke-width="3" fill="#E6EFFF"/><path d="M14.781 25.626l1.588 1.485s.506-8.686 7.771-9.723c0 0 5.199 3.363 10.853 5.767 5.162 2.195 10.704 3.423 13.016 3.918 0 0 .689-.882 1.48-2.346.107-.034.255-.073.447-.073.683 0 1.615.558.723 4.048-1.142 4.494-3.091 4.769-3.549 4.769-.099-.007-.184 1.183-.873 2.961-.967 2.65-3.085 6.453-7.657 8.779-1.107.603-2.222 1.031-3.338 1.285-.986.215-1.881.305-2.772.276-4.201-.161-7.519-2.78-9.166-4.363-4.336-4.668-4.593-8.946-4.593-8.946-.559.007-2.504-.269-3.646-4.762-.39-1.529-.419-2.474-.284-3.077z" id="Path" stroke="#5B5151" stroke-width="3" fill="#F2F4EC"/><path d="M27.438 38.229c.956 1.044 3.093.771 5.575.771 2.363 0 4.413.341 5.429-.623 0 0 .427-1.61-5.429-1.61s-5.575 1.61-5.575 1.61" stroke="#5B5151" stroke-width="2" stroke-linecap="round" fill="#5B5151"/><circle fill="#5B5151" cx="25.5" cy="29.5" r="1.5"/><circle fill="#5B5151" cx="40.5" cy="29.5" r="1.5"/></g><g transform="translate(602 3)" sketch:type="MSShapeGroup"><path d="M32.155 65.017c-14.789 0-25.095-2.836-28.098-3.775-1.057-8.689 9.617-15.736 15.999-19.14 1.599 1.638 7.717 7.18 15.918 5.526.276-.059.545-.127.815-.199.245-.063.495-.136.741-.213.471-.151.929-.317 1.367-.502.368-.158.738-.316 1.103-.5.251-.128.492-.261.734-.4.386-.213.767-.445 1.147-.695 1.54-1.015 2.783-2.155 3.777-3.202 1.081.542 2.186 1.174 3.059 1.857 6.25 3.782 13.939 10.001 13.05 17.442-9.745 2.523-19.705 3.801-29.613 3.801z" id="Path" stroke="#5B5151" stroke-width="3" fill="#E6EFFF"/><path d="M14.781 25.626l1.6-.972s.494-6.229 7.758-7.266c0 0 5.199 3.363 10.853 5.767 5.162 2.195 10.704 3.423 13.016 3.918 0 0 .689-.882 1.48-2.346.107-.034.255-.073.447-.073.683 0 1.615.558.723 4.048-1.142 4.494-3.091 4.769-3.549 4.769-.099-.007-.184 1.183-.873 2.961-.967 2.65-3.085 6.453-7.657 8.779-1.107.603-2.222 1.031-3.338 1.285-.986.215-1.881.305-2.772.276-4.201-.161-7.519-2.78-9.166-4.363-4.336-4.668-4.593-8.946-4.593-8.946-.559.007-2.504-.269-3.646-4.762-.39-1.529-.419-2.474-.284-3.077z" stroke="#5B5151" stroke-width="3" fill="#F2F4EC"/><circle fill="#5B5151" cx="27.5" cy="28.5" r="1.5"/><circle fill="#5B5151" cx="40.5" cy="28.5" r="1.5"/><path d="M29 39c.782 1.044 2.531 1.771 4.563 1.771 1.934 0 3.611-.659 4.443-1.623" stroke="#5B5151" stroke-width="2" stroke-linecap="round"/><path d="M15.878 25s.625-4.377 2.4-6.52 4.512-2.378 4.512-2.378 7.314 5.992 14.122 8.593c-.625-3.355-1.039-5.002-1.039-5.002s3.613 3.007 5.42 4.011c1.906 1.059 5.717 2.176 5.717 2.176s1.089-2.153 2.262-3.108c1.173-.955 3.728 2.838 3.728 2.229 0-4.448.708-11.721-2.908-17.302-3.616-5.581-6.799-4.874-11.753-4.248-5.311-3.981-25.155-5.229-25.339 20.551-.015 2.079 2.878 1 2.878 1z" stroke="#5B5151" stroke-width="3" fill="#FFBB76"/></g></g></svg>