<svg width="15" height="15" viewBox="0 0 15 15" xmlns="http://www.w3.org/2000/svg" xmlns:sketch="http://www.bohemiancoding.com/sketch/ns"><title>people-picto</title><desc>Created with Sketch.</desc><path d="M7.5 13c3.038 0 5.5-2.462 5.5-5.5s-2.462-5.5-5.5-5.5-5.5 2.462-5.5 5.5 2.462 5.5 5.5 5.5zm0 2c-4.142 0-7.5-3.358-7.5-7.5 0-4.142 3.358-7.5 7.5-7.5 4.142 0 7.5 3.358 7.5 7.5 0 4.142-3.358 7.5-7.5 7.5zm2.038-4.962l-.314-.154c-.458-.253-.693-.795-.693-1.273 0-.245.149-.447.281-.613.111-.137.204-.341.288-.583.184-.084.403-.279.403-.732 0-.284-.041-.467-.127-.584.034-.257.06-.527.08-.798l.003-.201c-.034-2.277-2.203-2.193-2.511-2.026-.292.161-.391.505-.403.552-.197-.085-.623.026-.867.5-.246.478-.145 1.177-.145 1.177.02.269.05.542.083.797-.085.117-.128.301-.128.584 0 .453.217.649.403.733.083.245.177.444.289.581.132.166.281.368.281.614 0 .477-.233 1.022-.693 1.273-.689.382-2.145.764-2.489 1.146 0-.003 1.5 1.97 4.221 1.97 2.721.001 4.213-1.97 4.213-1.97-.301-.331-1.436-.663-2.174-.995z" sketch:type="MSShapeGroup" fill="#bbb"/></svg>