<svg width="15" height="15" viewBox="0 0 15 15" xmlns="http://www.w3.org/2000/svg" xmlns:sketch="http://www.bohemiancoding.com/sketch/ns"><title>Shape Copy 4</title><desc>Created with Sketch.</desc><path d="M14.15 11.486l-3.991-3.99 3.99-3.989c.693-.693.693-1.809 0-2.492-.693-.693-1.808-.693-2.492.001l-3.995 3.99-3.991-3.991c-.691-.693-1.806-.693-2.492.001-.693.689-.693 1.807 0 2.492l3.991 3.99-3.991 3.995c-.693.69-.693 1.808 0 2.492.345.346.792.519 1.252.519.45 0 .906-.173 1.252-.519l3.991-3.991 3.991 3.99c.344.347.795.519 1.25.519.45 0 .907-.172 1.252-.519.666-.69.666-1.807-.018-2.498z" sketch:type="MSShapeGroup" fill="#767676"/></svg>