<svg width="57" height="35" viewBox="0 0 57 35" xmlns="http://www.w3.org/2000/svg" xmlns:sketch="http://www.bohemiancoding.com/sketch/ns"><title>Shape Copy 16</title><desc>Created with Sketch.</desc><path d="M43.372 16.214l-.288.117c.029-.419.056-.842.056-1.272 0-7.836-6.351-14.187-14.187-14.187-5.741 0-10.684 3.41-12.919 8.322-2.359-.483-4.861-.313-7.271.605-6.706 2.587-10.037 10.122-7.46 16.826 1.991 5.167 6.911 8.332 12.14 8.332l10.48.029v-7.818h-3.145c-1.165 0-1.621-.767-.995-1.7l7.954-12.841s.313-.457.767-.457.767.457.767.457l7.956 12.841c.607.936.156 1.7-1 1.7h-3.139v7.818h13.876c1.131-.011 2.28-.221 3.395-.654 4.997-1.927 7.48-7.546 5.561-12.553-1.924-5.003-7.542-7.495-12.548-5.565z" sketch:type="MSShapeGroup" fill="#767676"/></svg>