<svg width="50" height="46" viewBox="0 0 50 46" xmlns="http://www.w3.org/2000/svg" xmlns:sketch="http://www.bohemiancoding.com/sketch/ns"><title>Path 657 + Oval 49 + Oval 48</title><desc>Created with Sketch.</desc><defs><filter x="-50%" y="-50%" width="200%" height="200%" filterUnits="objectBoundingBox" id="a"><feOffset dy="2" in="SourceAlpha" result="shadowOffsetOuter1"/><feGaussianBlur in="shadowOffsetOuter1" result="shadowBlurOuter1"/><feColorMatrix values="0 0 0 0 1 0 0 0 0 1 0 0 0 0 1 0 0 0 0.7 0" in="shadowBlurOuter1" result="shadowMatrixOuter1"/><feMerge><feMergeNode in="shadowMatrixOuter1"/><feMergeNode in="SourceGraphic"/></feMerge></filter></defs><g sketch:type="MSLayerGroup" transform="translate(-914 -674) translate(916 676)" fill="none"><path d="M4.39 5.437l3.333 28.424s.18 4.898 5.419 6.329 18.759.587 21.575-.654c2.816-1.242 3.935-5.587 3.935-5.587l2.822-29.195" stroke="#3C80F4" stroke-width="2.058" fill="#3C80F4" sketch:type="MSShapeGroup"/><path d="M4.955 9.302h-2.854c-2.03 0-2.077 1.363-2.03 2.039.787 11.522 8.292 21.848 22.929 21.848 14.607 0 22.101-10.65 22.913-22.185.049-.702 0-2.114-1.954-2.114h-2.071" stroke="#3C80F4" stroke-width="2.058" filter="url(#a)" sketch:type="MSShapeGroup"/><path d="M4.39 5.437l1.344 11.464c.663 5.653 33.964 6.227 34.487.817l1.253-12.965" stroke="#3C80F4" stroke-width="2.058" fill="#3C80F4" sketch:type="MSShapeGroup"/><ellipse stroke="#3C80F4" stroke-width="2.058" fill="#fff" sketch:type="MSShapeGroup" cx="22.949" cy="5.19" rx="19.611" ry="5.19"/><ellipse fill="#fff" sketch:type="MSShapeGroup" cx="16.813" cy="21.879" rx="1.617" ry="1.639"/><ellipse fill="#fff" sketch:type="MSShapeGroup" cx="29.75" cy="21.879" rx="1.617" ry="1.639"/></g></svg>