<svg width="22" height="18" viewBox="0 0 22 18" xmlns="http://www.w3.org/2000/svg" xmlns:sketch="http://www.bohemiancoding.com/sketch/ns"><title>Shape Copy 3</title><desc>Created with Sketch.</desc><path d="M20.002 4.714h-1.249v-1.608c0-.891-.728-1.612-1.628-1.612h-6.675c-.06-.836-.755-1.489-1.615-1.489h-3.612c-.859 0-1.556.658-1.615 1.489h-.552c-.899 0-1.626.721-1.626 1.612v9.675c0 .888.726 1.613 1.626 1.613h14.457c.899 0 1.764-.725 1.94-1.613l1.873-6.446c.16-.896-.424-1.621-1.324-1.621zm-16.95 4.837v-6.446h14.073v1.611h-11.195c-.899 0-1.768.724-1.944 1.61l-.935 3.225zm14.828 2.782l-.02.071-.012.071c-.031.138-.233.307-.34.307h-13.693l1.741-6.006.017-.07.014-.074c.027-.138.232-.307.339-.307h13.693l-1.739 6.009z" sketch:type="MSShapeGroup" fill="#bbb"/></svg>