<svg width="8" height="7" viewBox="0 0 8 7" xmlns="http://www.w3.org/2000/svg" xmlns:sketch="http://www.bohemiancoding.com/sketch/ns"><title>Shape Copy 5</title><desc>Created with Sketch.</desc><path d="M7.41 5.494l-1.997-1.996 1.996-1.996c.347-.347.347-.905 0-1.247-.347-.347-.905-.347-1.247.001l-1.999 1.996-1.997-1.997c-.346-.347-.904-.347-1.247.001-.347.344-.347.904 0 1.247l1.997 1.996-1.997 1.999c-.347.345-.347.905 0 1.247.173.173.396.26.626.26.225 0 .453-.087.627-.26l1.997-1.997 1.997 1.996c.172.174.398.26.626.26.225 0 .454-.086.627-.26.333-.345.333-.904-.009-1.25z" sketch:type="MSShapeGroup" fill-opacity=".354"/></svg>