<svg width="23" height="19" viewBox="0 0 23 19" xmlns="http://www.w3.org/2000/svg" xmlns:sketch="http://www.bohemiancoding.com/sketch/ns"><title>Shape Copy 8</title><desc>Created with Sketch.</desc><path d="M16.194 16.091c-.724-.772-3.627-1.544-5.071-2.317-.966-.511-1.45-1.605-1.45-2.576 0-.491.312-.9.588-1.24.231-.277.432-.681.603-1.176.391-.168.845-.559.845-1.479 0-.58-.089-.944-.263-1.181.069-.523.125-1.065.166-1.613.169-2.199-1.932-4.362-4.105-4.362-2.173 0-4.271 2.158-4.105 4.362.041.548.098 1.091.17 1.613-.176.237-.265.606-.265 1.181 0 .915.454 1.31.844 1.479.17.49.37.894.603 1.176.281.341.586.749.586 1.24 0 .963-.489 2.057-1.444 2.576-.853.456-2.217.915-3.332 1.367v3.269h16.374c-.024 0-.024-1.545-.744-2.318zm6.725-.315c-.935-.387-2.104-.772-2.832-1.158-.785-.416-1.188-1.319-1.188-2.104 0-.403.256-.74.483-1.01.193-.229.353-.56.489-.964.321-.133.694-.462.694-1.206 0-.468-.073-.772-.216-.963.057-.428.103-.872.136-1.321.136-1.797-1.581-3.664-3.356-3.664-1.785 0-3.497 1.866-3.36 3.664.034.448.08.894.135 1.321-.148.194-.217.495-.217.963 0 .749.376 1.075.694 1.209.14.401.303.731.489.963.225.273.489.606.489 1.01 0 .511-.171 1.07-.512 1.51 1.376.527 1.98 1.057 2.47 1.581.875.939.875 2.807.875 2.807h4.734l-.008-2.638z" sketch:type="MSShapeGroup" fill="#bbb"/></svg>