<?xml version="1.0" encoding="UTF-8" standalone="no"?>
<svg width="35px" height="40px" viewBox="0 0 35 40" version="1.1" xmlns="http://www.w3.org/2000/svg" xmlns:xlink="http://www.w3.org/1999/xlink" xmlns:sketch="http://www.bohemiancoding.com/sketch/ns">
    <!-- Generator: Sketch 3.3 (11970) - http://www.bohemiancoding.com/sketch -->
    <title>PDF + Shape Copy 13</title>
    <desc>Created with Sketch.</desc>
    <defs></defs>
    <g id="Page-1" stroke="none" stroke-width="1" fill="none" fill-rule="evenodd" sketch:type="MSPage">
        <g id="Desktop-HD-Copy-9" sketch:type="MSArtboardGroup" transform="translate(-406.000000, -494.000000)">
            <g id="CONTENT" sketch:type="MSLayerGroup" transform="translate(-2.000000, 81.000000)">
                <g id="LaureBoutmyPass" transform="translate(399.000000, 403.000000)">
                    <g id="PDF-+-Shape-Copy-13" transform="translate(9.000000, 10.000000)">
                        <text id="PDF" sketch:type="MSTextLayer" font-family="Helvetica Neue" font-size="12" font-weight="bold" fill="#BBBBBB">
                            <tspan x="6" y="32">PDF</tspan>
                        </text>
                        <path d="M34.6203646,14.27875 C34.6203646,13.96625 34.5753646,13.67875 34.5003646,13.3975 C34.4566146,13.22125 34.3741146,13.08 34.3178646,12.92625 C34.2916146,12.84875 34.2578646,12.74375 34.2191146,12.6625 L34.2178646,12.6625 C33.9866146,12.1825 33.7228646,11.815 33.5278646,11.605 L22.6366146,1.14125 C21.7691146,0.28125 20.6066146,0.07375 20.0441146,0.02375 C20.0403646,0.02375 20.0366146,0.02375 20.0328646,0.0225 C19.9291146,0.005 19.8403646,0 19.7853646,0 L19.7078646,0 L16.8641146,0 L4.62411458,0 C2.55161458,0 0.874114583,1.6875 0.874114583,3.75 L0.874114583,36.25 C0.874114583,38.3125 2.55161458,40 4.62411458,40 L30.8741146,40 C32.9441146,40 34.6241146,38.3125 34.6241146,36.25 L34.6241146,16.775 L34.6241146,14.4575 C34.6266146,14.4 34.6203646,14.345 34.6203646,14.27875 L34.6203646,14.27875 Z M30.8816146,36.26625 L4.63161458,36.26625 L4.63161458,3.76625 L17.7228646,3.76625 L17.7228646,8.9025 C17.7228646,13.0425 21.0853646,16.4025 25.2228646,16.4025 L30.8816146,16.4025 L30.8816146,36.26625 L30.8816146,36.26625 Z M25.2116146,12.6625 C23.1541146,12.6625 21.4616146,10.97375 21.4616146,8.9125 L21.4616146,4.355 L30.2566146,12.6625 L25.2116146,12.6625 L25.2116146,12.6625 Z" id="Shape-Copy-13" opacity="0.181553172" fill="#767676" sketch:type="MSShapeGroup"></path>
                    </g>
                </g>
            </g>
        </g>
    </g>
</svg>