<svg width="20" height="22" viewBox="0 0 20 22" xmlns="http://www.w3.org/2000/svg" xmlns:xlink="http://www.w3.org/1999/xlink" xmlns:sketch="http://www.bohemiancoding.com/sketch/ns"><title>Shape Copy 2</title><desc>Created with Sketch.</desc><defs><path d="M9.942.902c-3.739-.001-6.767 3.027-6.759 6.761 0 7.089-1.57 7.89-2.369 8.577-.593.509-.914 1.389-.737 2.248.161.823.619 1.191 1.351 1.639.304.163 2.777 2.01 8.516 2.008 5.745-.004 8.21-1.845 8.517-2.007.739-.449 1.191-.813 1.353-1.642.171-.866-.147-1.745-.741-2.243-.793-.693-2.37-1.489-2.369-8.579.007-3.74-3.021-6.768-6.762-6.763zm7.206 17.076c-.003 1.298-3.227 2.34-7.203 2.339-3.986 0-7.201-1.048-7.207-2.34.001-.983 1.869-1.824 4.514-2.17-.03.169-.051.341-.054.515-.001 1.513 1.228 2.742 2.74 2.741 1.513 0 2.741-1.227 2.741-2.741-.001-.178-.02-.349-.054-.515 2.656.347 4.52 1.192 4.524 2.171z" id="a"/></defs><g transform="translate(-1242 -29) translate(1242 28.5)" sketch:type="MSLayerGroup" opacity=".75" fill="none"><use fill="#fff" sketch:type="MSShapeGroup" xlink:href="#a"/><use fill="#bbb" xlink:href="#a"/></g></svg>