<?xml version="1.0" encoding="UTF-8" standalone="no"?>
<svg width="57px" height="35px" viewBox="0 0 57 35" version="1.1" xmlns="http://www.w3.org/2000/svg" xmlns:xlink="http://www.w3.org/1999/xlink" xmlns:sketch="http://www.bohemiancoding.com/sketch/ns">
    <!-- Generator: Sketch 3.3 (11970) - http://www.bohemiancoding.com/sketch -->
    <title>Shape Copy 16</title>
    <desc>Created with Sketch.</desc>
    <defs></defs>
    <g id="Page-1" stroke="none" stroke-width="1" fill="none" fill-rule="evenodd" sketch:type="MSPage">
        <g id="Desktop-HD-Copy-8" sketch:type="MSArtboardGroup" transform="translate(-539.000000, -311.000000)" fill="#767676">
            <path d="M582.371946,327.213785 C582.276421,327.25063 582.172708,327.298392 582.084006,327.331144 C582.112664,326.912199 582.139957,326.489161 582.139957,326.059299 C582.139957,318.223535 575.788921,311.8725 567.953158,311.8725 C562.212117,311.8725 557.26939,315.282736 555.03411,320.194076 C552.674647,319.710993 550.173261,319.881573 547.763307,320.798611 C541.057465,323.385969 537.726379,330.920147 540.302819,337.624624 C542.293829,342.791152 547.213357,345.957117 552.442658,345.957117 L562.923094,345.985774 L562.923094,338.167751 L559.777599,338.167751 C558.612196,338.167751 558.156406,337.400823 558.782776,336.467409 L566.737263,323.626146 C566.737263,323.626146 567.049766,323.168991 567.504191,323.168991 C567.958616,323.168991 568.271119,323.626146 568.271119,323.626146 L576.226971,336.467409 C576.834236,337.403552 576.38254,338.167751 575.22669,338.167751 L572.088017,338.167751 L572.088017,345.985774 L585.963678,345.985774 C587.094965,345.974857 588.243992,345.764703 589.358903,345.332112 C594.356215,343.40524 596.838496,337.785652 594.919812,332.778787 C592.995669,327.776016 587.377446,325.284183 582.371946,327.213785 Z" id="Shape-Copy-16" sketch:type="MSShapeGroup"></path>
        </g>
    </g>
</svg>