<svg width="15" height="15" viewBox="0 0 15 15" xmlns="http://www.w3.org/2000/svg" xmlns:sketch="http://www.bohemiancoding.com/sketch/ns"><title>Shape</title><desc>Created with Sketch.</desc><path d="M2 4v7c0 1.103.897 2 2 2h7c1.103 0 2-.897 2-2v-7c0-1.103-.897-2-2-2h-7c-1.103 0-2 .897-2 2zm-2 0c0-2.209 1.794-4 4-4h7c2.209 0 4 1.794 4 4v7c0 2.209-1.794 4-4 4h-7c-2.209 0-4-1.794-4-4v-7zm6.45 7.24c-.199 0-.393-.093-.537-.257l-2.19-2.51c-.297-.342-.297-.894 0-1.233.295-.34.776-.34 1.076 0l1.655 1.895 3.976-4.551c.297-.342.776-.342 1.076 0 .295.34.295.892 0 1.231l-4.514 5.17c-.145.163-.338.255-.542.255z" sketch:type="MSShapeGroup" fill="#bbb"/></svg>