<svg width="13" height="13" viewBox="0 0 13 13" xmlns="http://www.w3.org/2000/svg" xmlns:sketch="http://www.bohemiancoding.com/sketch/ns"><title>Shape Copy 3</title><desc>Created with Sketch.</desc><path d="M12.269 4.886h-4.159v-4.155c0-.406-.328-.731-.731-.731h-1.76c-.405 0-.731.328-.731.731v4.155h-4.155c-.406 0-.732.328-.732.732v1.759c0 .406.328.732.732.732h4.155v4.156c0 .405.328.731.731.731h1.76c.405 0 .731-.329.731-.731v-4.156h4.159c.406 0 .731-.328.731-.732v-1.759c.003-.404-.325-.732-.731-.732z" sketch:type="MSShapeGroup" fill="#fff"/></svg>