<svg width="18" height="19" viewBox="0 0 18 19" xmlns="http://www.w3.org/2000/svg" xmlns:sketch="http://www.bohemiancoding.com/sketch/ns"><title>Group Copy 2</title><desc>Created with Sketch.</desc><path d="M15.56 10.001c-.735 0-1.327.596-1.327 1.329v1.198c0 .384-.313.697-.697.697h-8.803c-.384 0-.697-.313-.697-.697v-1.198c0-.737-.596-1.329-1.329-1.329-.734 0-1.33.596-1.33 1.329v1.198c0 1.85 1.505 3.358 3.357 3.358h8.802c1.851 0 3.357-1.505 3.357-3.358v-1.198c0-.735-.595-1.329-1.331-1.329zm-7.218 1.55c.26.257.6.39.94.39.34 0 .679-.131.94-.389l4.096-4.096c.515-.518.515-1.363 0-1.881-.52-.518-1.363-.518-1.881 0l-1.828 1.827v-5.701c0-.737-.596-1.329-1.329-1.329-.735 0-1.329.596-1.329 1.329v5.7l-1.744-1.744c-.518-.518-1.362-.517-1.882 0-.518.516-.518 1.363 0 1.881l4.018 4.014z" sketch:type="MSShapeGroup" fill="#bbb"/></svg>