<svg width="21" height="20" viewBox="0 0 21 20" xmlns="http://www.w3.org/2000/svg" xmlns:sketch="http://www.bohemiancoding.com/sketch/ns"><title>Shape</title><desc>Created with Sketch.</desc><path d="M18.469 7.122v-1.926c0-.269-.09-.47-.246-.627l-4.323-4.323c-.179-.134-.358-.246-.649-.246h-8.959c-.493 0-.873.403-.873.896v6.226h-1.68c-.493 0-.896.426-.896.941v8.287c0 .47.403.873.896.873h1.657v1.881c0 .493.403.896.873.896h13.259c.515 0 .918-.403.918-.896v-1.881h1.657c.515 0 .896-.403.896-.873v-8.287c0-.515-.381-.941-.896-.941h-1.635zm-13.259 10.997v-5.801h11.467v5.801h-11.467zm0-10.997v-5.308h7.122v3.382c0 .515.426.918.918.918h3.427v1.03h-11.467v-.022zm13.259 3.494c-.515 0-.896-.426-.896-.963 0-.493.403-.918.896-.918.515 0 .918.426.918.918 0 .538-.403.963-.918.963zm-11.915 2.732v1.344h8.69v-1.344h-8.69zm0 2.172v1.321h8.69v-1.321h-8.69z" sketch:type="MSShapeGroup" fill="#bbb"/></svg>