<svg width="19" height="19" viewBox="0 0 19 19" xmlns="http://www.w3.org/2000/svg" xmlns:sketch="http://www.bohemiancoding.com/sketch/ns"><title>Shape Copy 4</title><desc>Created with Sketch.</desc><path d="M17.931 7.144h-6.078v-6.075c0-.594-.479-1.069-1.069-1.069h-2.572c-.591 0-1.069.48-1.069 1.069v6.075h-6.073c-.594 0-1.07.48-1.07 1.07v2.571c0 .594.479 1.07 1.07 1.07h6.073v6.076c0 .592.48 1.069 1.069 1.069h2.572c.591 0 1.069-.481 1.069-1.069v-6.076h6.078c.594 0 1.069-.48 1.069-1.07v-2.571c.004-.591-.475-1.07-1.069-1.07z" sketch:type="MSShapeGroup" fill="#DBDBDB"/></svg>